<svg viewBox="0 0 64 64" fill="none" xmlns="http://www.w3.org/2000/svg">
  <rect width="64" height="64" rx="14" fill="#1a1a2e"/>
  <path d="M32 10C24 10 20 14 18 18C16 14 12 10 8 14C4 18 6 26 8 34C10 42 14 54 20 54C24 54 26 46 28 38C29 34 30 30 32 30C34 30 35 34 36 38C38 46 40 54 44 54C50 54 54 42 56 34C58 26 60 18 56 14C52 10 48 14 46 18C44 14 40 10 32 10Z" fill="#7fdbda"/>
  <ellipse cx="26" cy="26" rx="3" ry="4" fill="#1a1a2e" opacity="0.2"/>
  <ellipse cx="38" cy="26" rx="3" ry="4" fill="#1a1a2e" opacity="0.2"/>
</svg>
